<?xml version="1.0" encoding="utf-8"?>
<!-- Generator: Adobe Illustrator 16.0.0, SVG Export Plug-In . SVG Version: 6.00 Build 0)  -->
<!DOCTYPE svg PUBLIC "-//W3C//DTD SVG 1.0//EN" "http://www.w3.org/TR/2001/REC-SVG-20010904/DTD/svg10.dtd">
<svg version="1.0" id="Layer_1" xmlns="http://www.w3.org/2000/svg" xmlns:xlink="http://www.w3.org/1999/xlink" x="0px" y="0px"
	 width="350px" height="100px" viewBox="0 0 350 100" enable-background="new 0 0 350 100" xml:space="preserve">
<rect fill="#3C2865" stroke="#000000" stroke-miterlimit="10" width="350" height="100"/>
<text transform="matrix(1 0 0 1 17.84082 79.76367)" fill="#FFFFFF" font-family="'ArialMT'" font-size="60" letter-spacing="16">PENTA</text>
<path fill="#FFFFFF" d="M303.5,13.1626c0.14648,0,0.29883,0,0.44531,0c0.12891,0.01953,0.25781,0.03906,0.38086,0.06055
	c0.88672,0.13477,1.64062,0.51953,2.29688,1.13477c0.99609,0.93164,2.20312,1.48828,3.49805,1.86133
	c0.98438,0.28516,1.98633,0.42773,3.01367,0.34375c0.4082-0.03516,0.81836-0.07422,1.22266-0.04102
	c1.74609,0.14453,3.28125,1.50586,3.61523,3.23438c0.2168,1.09766,0.64453,2.09375,1.25391,3.01758
	c0.80859,1.22461,1.80273,2.24609,3.09961,2.97461c1.69336,0.95117,2.46484,3.02148,1.8457,4.86719
	c-0.13477,0.4043-0.33984,0.78516-0.47461,1.18945c-0.38672,1.13672-0.49805,2.31055-0.42188,3.50586
	c0.05859,1.01562,0.24609,2.00391,0.6875,2.92969c0.32031,0.67383,0.4668,1.37109,0.40234,2.10938
	c-0.12891,1.42969-0.78125,2.54883-2.02148,3.26367c-0.97461,0.5625-1.80664,1.27148-2.50195,2.14453
	c-0.91406,1.14258-1.58203,2.40234-1.86914,3.86133c-0.375,1.89209-2.0918,3.26318-4.01953,3.25732
	c-0.35352,0-0.70508-0.05859-1.06055-0.07617c-1.03125-0.05273-2.03906,0.11719-3.01953,0.42773
	c-1.26953,0.4043-2.41406,1.01367-3.4082,1.92188c-1.54688,1.41797-3.9668,1.40625-5.51367-0.01758
	c-0.78516-0.7207-1.66992-1.25977-2.66016-1.64062c-1.3418-0.52734-2.72656-0.80859-4.18359-0.65625
	c-0.38672,0.04102-0.78125,0.04688-1.16602,0c-1.65234-0.19336-3.08203-1.45898-3.43945-3.08154
	c-0.22852-1.01367-0.5625-1.97461-1.10938-2.85938c-0.8418-1.35352-1.89062-2.49023-3.30469-3.28125
	c-1.5918-0.89062-2.37695-2.83008-1.89648-4.59375c0.11719-0.43359,0.32812-0.83789,0.48633-1.26367
	c0.41602-1.12695,0.53906-2.29883,0.49219-3.49414c-0.04102-1.0957-0.23438-2.15625-0.70898-3.1543
	c-0.20898-0.43359-0.35156-0.88867-0.38086-1.37109c-0.11133-1.71875,0.52148-3.08789,2.00977-3.96875
	c1.11328-0.66016,2.03711-1.49219,2.79492-2.52539c0.74609-1.02344,1.30664-2.13086,1.55859-3.38477
	c0.34766-1.75195,1.63477-2.99219,3.4043-3.3125c0.47461-0.08789,0.94922-0.04492,1.42383,0.00781
	c1.05469,0.11133,2.08008-0.05078,3.08789-0.34766c1.34766-0.39453,2.58398-1.00195,3.61523-1.98828
	c0.47656-0.45898,1.06055-0.75391,1.70508-0.90625C302.94922,13.24854,303.22461,13.21143,303.5,13.1626z M294.24023,43.53174
	c0.00391,0,0.00781,0,0.01367,0c0,0.1875-0.01172,0.375,0.00195,0.55664c0.10938,1.47656,1.29883,2.4082,2.73438,2.0918
	c0.5625-0.11719,1.10547-0.33398,1.63477-0.55078c1.38867-0.56836,2.79102-1.04883,4.31445-1.10742
	c1.66797-0.06445,3.29297,0.07617,4.85547,0.71484c0.75586,0.31055,1.51758,0.60938,2.29102,0.86719
	c0.65625,0.22266,1.33008,0.22266,1.95117-0.12891c0.80859-0.44531,1.13086-1.20117,1.14844-2.08008
	c0.01172-0.67969-0.0293-1.36523-0.08789-2.04492c-0.0957-1.13086-0.05859-2.25,0.20508-3.36328
	c0.35742-1.51758,0.89648-2.9707,1.82422-4.24219c0.50781-0.6875,1.08203-1.32617,1.60938-2
	c0.23828-0.30078,0.47461-0.61328,0.64062-0.95508c0.4082-0.83398,0.38477-1.6543-0.23047-2.40039
	c-0.31055-0.37891-0.71484-0.63672-1.17773-0.78711c-0.48633-0.1582-0.98633-0.28516-1.48242-0.41602
	c-1.05078-0.27539-2.10547-0.52344-3.07031-1.05078c-1.54688-0.84766-2.9375-1.88672-3.98828-3.32031
	c-0.5625-0.77148-1.03906-1.60156-1.57227-2.39844c-0.16406-0.24609-0.35156-0.48047-0.5625-0.6875
	c-0.75586-0.74609-1.75195-0.89258-2.625-0.39844c-0.38086,0.21484-0.69141,0.50781-0.9375,0.86328
	c-0.29297,0.42383-0.58008,0.85156-0.84375,1.29688c-0.78516,1.33594-1.74805,2.50977-3,3.44141
	c-1.11133,0.82812-2.28516,1.53711-3.63281,1.91016c-0.67383,0.1875-1.35352,0.35938-2.0332,0.53125
	c-0.57422,0.14453-1.13672,0.31445-1.60547,0.69922c-0.60938,0.5-0.90234,1.13281-0.80273,1.93359
	c0.07617,0.57812,0.3418,1.07031,0.70117,1.51758c0.33203,0.41602,0.66406,0.83789,1.01562,1.23828
	c0.88477,1,1.57617,2.11328,2.04297,3.36914c0.5,1.35156,0.85156,2.73438,0.81641,4.1875
	C294.36523,41.72705,294.28906,42.62939,294.24023,43.53174z"/>
</svg>
