<?xml version="1.0" encoding="utf-8"?>
<!-- Generator: Adobe Illustrator 16.0.0, SVG Export Plug-In . SVG Version: 6.00 Build 0)  -->
<!DOCTYPE svg PUBLIC "-//W3C//DTD SVG 1.0//EN" "http://www.w3.org/TR/2001/REC-SVG-20010904/DTD/svg10.dtd">
<svg version="1.0" xmlns="http://www.w3.org/2000/svg" xmlns:xlink="http://www.w3.org/1999/xlink" x="0px" y="0px" width="103px"
	 height="23px" viewBox="0 0 103 23" enable-background="new 0 0 103 23" xml:space="preserve">
<g id="Layer_2" display="none">
	<rect y="-3.27734" display="inline" fill="#3C2966" width="104.12695" height="27.62305"/>
	<path display="inline" fill-rule="evenodd" clip-rule="evenodd" fill="none" d="M55.91699,3.99561
		c-0.10156,0.01855-0.2041,0.03223-0.30371,0.05566c-0.23926,0.05664-0.4541,0.16553-0.63184,0.33496
		c-0.38184,0.36523-0.83887,0.59033-1.33887,0.73682C53.26953,5.23291,52.88867,5.29297,52.5,5.25098
		c-0.17773-0.01855-0.35254-0.03516-0.52881-0.00293c-0.65381,0.11914-1.13135,0.57861-1.26025,1.22705
		c-0.09277,0.46533-0.30029,0.87549-0.57715,1.25342c-0.28076,0.38281-0.62305,0.69141-1.03516,0.93604
		c-0.55078,0.32617-0.78613,0.8335-0.74463,1.47021c0.01172,0.17822,0.06445,0.34619,0.14062,0.50781
		c0.17578,0.36914,0.24854,0.76221,0.26367,1.16699c0.0166,0.44238-0.02783,0.87695-0.18311,1.29492
		c-0.05762,0.15723-0.13574,0.30762-0.1792,0.46777c-0.17822,0.65332,0.11279,1.37109,0.70166,1.70215
		c0.52344,0.29297,0.9126,0.71289,1.22363,1.21387c0.20312,0.32812,0.32764,0.68359,0.41113,1.06055
		c0.13281,0.60059,0.66309,1.06836,1.27344,1.14062c0.14258,0.01758,0.29004,0.01465,0.43262,0
		c0.53906-0.05664,1.05176,0.04883,1.5498,0.24219c0.36523,0.14258,0.69336,0.34277,0.98438,0.60938
		c0.57227,0.52734,1.46973,0.53125,2.04297,0.00586c0.36719-0.33691,0.79102-0.5625,1.26172-0.71094
		c0.36328-0.11523,0.73633-0.17773,1.11914-0.1582c0.13086,0.00586,0.26074,0.02637,0.3916,0.02637
		c0.71387,0.00293,1.34961-0.50391,1.48926-1.20605c0.10742-0.53906,0.35449-1.00586,0.69238-1.42969
		c0.25684-0.32324,0.56543-0.58496,0.92578-0.79297c0.45996-0.26562,0.70215-0.68164,0.74902-1.20898
		c0.02441-0.27441-0.0293-0.5332-0.14844-0.78223c-0.16309-0.34277-0.23242-0.70898-0.25586-1.08594
		c-0.02734-0.44189,0.01465-0.87646,0.15625-1.29785c0.05078-0.14941,0.12695-0.29102,0.17676-0.44043
		c0.22949-0.68359-0.05664-1.45068-0.68359-1.80273c-0.48047-0.26953-0.84863-0.64844-1.14746-1.10156
		c-0.22559-0.34229-0.38477-0.71143-0.46484-1.11816c-0.12402-0.63965-0.69238-1.14404-1.33887-1.19727
		c-0.14941-0.01221-0.30176,0.00195-0.45215,0.01465c-0.38086,0.03125-0.75195-0.02148-1.11719-0.12695
		c-0.47949-0.13867-0.92578-0.34424-1.29492-0.68945c-0.24316-0.22754-0.52246-0.37061-0.85059-0.42041
		c-0.04688-0.00732-0.09473-0.01465-0.1416-0.02246c2.55273,0,5.10645,0,7.65918,0c0,5.33643,0,10.67236,0,16.0083
		c-5.16113,0-10.32227,0-15.48291,0c0-5.33594,0-10.67188,0-16.0083C50.81104,3.99561,53.36426,3.99561,55.91699,3.99561z"/>
	<path display="inline" fill-rule="evenodd" clip-rule="evenodd" fill="none" d="M52.4873,15.24414
		c0.01855-0.33398,0.04688-0.66895,0.05566-1.00391c0.01367-0.53906-0.11719-1.05176-0.30273-1.55273
		c-0.17285-0.46484-0.42969-0.87695-0.75684-1.24756c-0.13086-0.14844-0.25293-0.3042-0.37598-0.4585
		c-0.13281-0.16602-0.23145-0.34766-0.25879-0.5625c-0.03809-0.2959,0.07129-0.53027,0.29688-0.71582
		c0.17334-0.14258,0.38184-0.20508,0.59473-0.25879c0.25146-0.06348,0.50293-0.12744,0.75293-0.19678
		c0.49902-0.13867,0.93359-0.40088,1.3457-0.70752c0.46289-0.34521,0.82031-0.78027,1.11035-1.27539
		c0.09766-0.16406,0.2041-0.32227,0.3125-0.47949c0.09082-0.13184,0.20703-0.24023,0.34766-0.31982
		c0.32227-0.18262,0.69141-0.12891,0.97168,0.14746c0.07812,0.07666,0.14844,0.16406,0.20898,0.25537
		c0.19629,0.29395,0.37402,0.60205,0.58203,0.88721c0.38867,0.53125,0.9043,0.91553,1.47656,1.22998
		c0.35742,0.19629,0.74805,0.2876,1.13672,0.38965c0.18457,0.04834,0.36914,0.09521,0.5498,0.1543
		c0.1709,0.05518,0.32031,0.15137,0.43555,0.29102c0.22852,0.27637,0.23633,0.58008,0.08594,0.88965
		c-0.06152,0.12598-0.14941,0.2417-0.23633,0.35352c-0.19629,0.24951-0.40918,0.48584-0.59668,0.74121
		c-0.34473,0.4707-0.54297,1.00781-0.67676,1.57031c-0.09668,0.41211-0.11133,0.82617-0.07422,1.24609
		c0.02148,0.25195,0.03711,0.50586,0.03125,0.75781c-0.00684,0.3252-0.125,0.60352-0.4248,0.77051
		c-0.23047,0.12891-0.47949,0.12988-0.72168,0.04785c-0.28711-0.09668-0.57031-0.20703-0.84961-0.32227
		c-0.57812-0.2373-1.18066-0.28809-1.79785-0.26465c-0.56445,0.02148-1.08398,0.2002-1.59863,0.41016
		c-0.19629,0.08105-0.39746,0.16113-0.60449,0.20508c-0.5332,0.11621-0.97363-0.22852-1.0127-0.77441
		c-0.00488-0.06836-0.00098-0.1377-0.00098-0.20703C52.49121,15.24414,52.48926,15.24414,52.4873,15.24414z"/>
</g>
<g id="Layer_1">
	<text transform="matrix(1 0 0 1 0 22.79688)" fill="#FFFFFF" font-family="'ArialMT'" font-size="21" letter-spacing="5">PENTA</text>
</g>
<g id="Layer_3">
	<path fill="#FFFFFF" d="M95.95898,0c0.04883,0,0.09961,0,0.14844,0c0.04297,0.00684,0.08594,0.01318,0.12695,0.02002
		C96.53027,0.06494,96.78125,0.19336,97,0.39844c0.33203,0.31055,0.73438,0.49609,1.16602,0.62061
		c0.32812,0.09473,0.66211,0.14209,1.00488,0.11426c0.13574-0.01172,0.27246-0.02441,0.40723-0.01318
		c0.58203,0.04785,1.09375,0.50146,1.20508,1.07764c0.07227,0.36572,0.21484,0.69824,0.41797,1.00586
		c0.26953,0.4082,0.60059,0.74902,1.0332,0.9917c0.56445,0.31689,0.82129,1.00732,0.61523,1.62256
		c-0.04492,0.13477-0.11328,0.26172-0.1582,0.39648c-0.12891,0.37891-0.16602,0.77002-0.14062,1.16797
		c0.01953,0.33936,0.08203,0.66846,0.22949,0.97754c0.10645,0.22363,0.15527,0.45703,0.13379,0.70312
		c-0.04297,0.47559-0.26074,0.84961-0.67383,1.08789c-0.3252,0.1875-0.60254,0.42383-0.83398,0.71484
		c-0.30469,0.38086-0.52734,0.80078-0.62305,1.28662c-0.125,0.63086-0.69727,1.08789-1.33984,1.08594
		c-0.11816,0-0.23535-0.01953-0.35352-0.02539c-0.34375-0.01758-0.67969,0.03906-1.00684,0.14258
		c-0.42285,0.13477-0.80469,0.33789-1.13574,0.64062c-0.51562,0.47266-1.32227,0.46875-1.83789-0.00586
		c-0.26172-0.24023-0.55664-0.41992-0.88672-0.54688c-0.44727-0.17578-0.90918-0.26953-1.39453-0.21875
		c-0.12891,0.01367-0.26074,0.01562-0.38867,0c-0.55078-0.06445-1.02734-0.48633-1.14648-1.02734
		c-0.07617-0.33838-0.1875-0.65869-0.37012-0.95361c-0.28027-0.45117-0.62988-0.8291-1.10156-1.09277
		C89.29102,9.854,89.0293,9.20752,89.18945,8.61963c0.03906-0.14453,0.10938-0.28027,0.16211-0.42139
		c0.13867-0.37646,0.17969-0.76709,0.16406-1.16553c-0.01367-0.36475-0.07812-0.71826-0.23633-1.05078
		c-0.06934-0.14502-0.11719-0.29639-0.12695-0.45703c-0.03711-0.57275,0.17383-1.0293,0.66992-1.32275
		c0.37109-0.22021,0.67871-0.49805,0.93164-0.84229c0.24902-0.34082,0.43555-0.70996,0.51953-1.12842
		c0.11621-0.5835,0.54492-0.99707,1.13477-1.104c0.1582-0.0293,0.31641-0.01465,0.47461,0.00244
		c0.35156,0.0376,0.69336-0.0166,1.0293-0.11523c0.44922-0.13184,0.86133-0.33447,1.20508-0.66309
		c0.15918-0.15283,0.35352-0.25098,0.56836-0.30176C95.77539,0.02881,95.86719,0.01611,95.95898,0z M92.87207,10.12354
		c0.00195,0,0.00293,0,0.00488,0c0,0.0625-0.00391,0.125,0.00098,0.18555c0.03613,0.49219,0.43262,0.80273,0.91113,0.69727
		c0.1875-0.03906,0.36816-0.11133,0.54492-0.18359c0.46289-0.18945,0.93066-0.34961,1.43848-0.36914
		c0.55566-0.02148,1.09766,0.02441,1.61816,0.23828c0.25195,0.10352,0.50586,0.20312,0.76367,0.28906
		c0.21875,0.07422,0.44336,0.07422,0.65039-0.04297c0.26953-0.14941,0.37695-0.40039,0.38281-0.69336
		c0.00391-0.22656-0.00977-0.45508-0.0293-0.68164c-0.03223-0.37695-0.01953-0.75098,0.06836-1.12109
		c0.11914-0.50684,0.29883-0.99023,0.6084-1.41406c0.16895-0.22949,0.36035-0.44238,0.53613-0.66699
		c0.0791-0.10059,0.1582-0.20459,0.21387-0.31836c0.13574-0.27832,0.12793-0.55176-0.07715-0.80029
		c-0.10352-0.12598-0.23828-0.2124-0.39258-0.26221c-0.16211-0.05273-0.3291-0.09521-0.49414-0.13867
		c-0.35059-0.0918-0.70215-0.17432-1.02344-0.35059c-0.51562-0.28271-0.97949-0.62891-1.3291-1.10693
		c-0.1875-0.25684-0.34668-0.53369-0.52441-0.79883c-0.05469-0.08203-0.11719-0.16064-0.1875-0.22949
		c-0.25195-0.24902-0.58398-0.29736-0.875-0.13281c-0.12695,0.07178-0.23047,0.16943-0.3125,0.28809
		c-0.09766,0.14111-0.19336,0.28369-0.28125,0.43164c-0.26172,0.44531-0.58301,0.83691-1,1.14746
		c-0.37012,0.27637-0.76172,0.51221-1.21094,0.63672c-0.22461,0.0625-0.45117,0.12012-0.67773,0.17725
		c-0.19141,0.04834-0.37891,0.10449-0.53516,0.23291c-0.20312,0.16699-0.30078,0.37793-0.26758,0.64453
		c0.02539,0.19287,0.11426,0.35645,0.2334,0.50586c0.11133,0.13867,0.22168,0.2793,0.33887,0.4126
		c0.29492,0.3335,0.52539,0.70508,0.68066,1.12354c0.16699,0.45068,0.28418,0.91162,0.27246,1.396
		C92.91406,9.52197,92.88867,9.82275,92.87207,10.12354z"/>
	<path fill-rule="evenodd" clip-rule="evenodd" fill="none" d="M95.95898,0c-0.0918,0.01611-0.18359,0.02881-0.27344,0.0498
		c-0.21484,0.05078-0.40918,0.14893-0.56836,0.30176c-0.34375,0.32861-0.75586,0.53125-1.20508,0.66309
		c-0.33594,0.09863-0.67773,0.15283-1.0293,0.11523c-0.1582-0.01709-0.31641-0.03174-0.47461-0.00244
		c-0.58984,0.10693-1.01855,0.52051-1.13477,1.104c-0.08398,0.41846-0.27051,0.7876-0.51953,1.12842
		c-0.25293,0.34424-0.56055,0.62207-0.93164,0.84229c-0.49609,0.29346-0.70703,0.75-0.66992,1.32275
		c0.00977,0.16064,0.05762,0.31201,0.12695,0.45703c0.1582,0.33252,0.22266,0.68604,0.23633,1.05078
		c0.01562,0.39844-0.02539,0.78906-0.16406,1.16553c-0.05273,0.14111-0.12305,0.27686-0.16211,0.42139
		c-0.16016,0.58789,0.10156,1.23438,0.63184,1.53125c0.47168,0.26367,0.82129,0.6416,1.10156,1.09277
		c0.18262,0.29492,0.29395,0.61523,0.37012,0.95361c0.11914,0.54102,0.5957,0.96289,1.14648,1.02734
		c0.12793,0.01562,0.25977,0.01367,0.38867,0c0.48535-0.05078,0.94727,0.04297,1.39453,0.21875
		c0.33008,0.12695,0.625,0.30664,0.88672,0.54688c0.51562,0.47461,1.32227,0.47852,1.83789,0.00586
		c0.33105-0.30273,0.71289-0.50586,1.13574-0.64062c0.32715-0.10352,0.66309-0.16016,1.00684-0.14258
		c0.11816,0.00586,0.23535,0.02539,0.35352,0.02539c0.64258,0.00195,1.21484-0.45508,1.33984-1.08594
		c0.0957-0.48584,0.31836-0.90576,0.62305-1.28662c0.23145-0.29102,0.50879-0.52734,0.83398-0.71484
		c0.41309-0.23828,0.63086-0.6123,0.67383-1.08789c0.02148-0.24609-0.02734-0.47949-0.13379-0.70312
		c-0.14746-0.30908-0.20996-0.63818-0.22949-0.97754c-0.02539-0.39795,0.01172-0.78906,0.14062-1.16797
		c0.04492-0.13477,0.11328-0.26172,0.1582-0.39648c0.20605-0.61523-0.05078-1.30566-0.61523-1.62256
		c-0.43262-0.24268-0.76367-0.5835-1.0332-0.9917c-0.20312-0.30762-0.3457-0.64014-0.41797-1.00586
		c-0.11133-0.57617-0.62305-1.02979-1.20508-1.07764c-0.13477-0.01123-0.27148,0.00146-0.40723,0.01318
		c-0.34277,0.02783-0.67676-0.01953-1.00488-0.11426C97.73438,0.89453,97.33203,0.70898,97,0.39844
		c-0.21875-0.20508-0.46973-0.3335-0.76562-0.37842C96.19336,0.01318,96.15039,0.00684,96.10742,0c2.29785,0,4.5957,0,6.89258,0
		c0,4.80273,0,9.60498,0,14.40625c-4.64453,0-9.28906,0-13.93457,0c0-4.80127,0-9.60352,0-14.40625
		C91.36328,0,93.66113,0,95.95898,0z"/>
	<path fill-rule="evenodd" clip-rule="evenodd" fill="none" d="M92.87207,10.12354c0.0166-0.30078,0.04199-0.60156,0.0498-0.9043
		c0.01172-0.48438-0.10547-0.94531-0.27246-1.396c-0.15527-0.41846-0.38574-0.79004-0.68066-1.12354
		c-0.11719-0.1333-0.22754-0.27393-0.33887-0.4126c-0.11914-0.14941-0.20801-0.31299-0.2334-0.50586
		c-0.0332-0.2666,0.06445-0.47754,0.26758-0.64453c0.15625-0.12842,0.34375-0.18457,0.53516-0.23291
		c0.22656-0.05713,0.45312-0.11475,0.67773-0.17725c0.44922-0.12451,0.84082-0.36035,1.21094-0.63672
		c0.41699-0.31055,0.73828-0.70215,1-1.14746c0.08789-0.14795,0.18359-0.29053,0.28125-0.43164
		c0.08203-0.11865,0.18555-0.21631,0.3125-0.28809c0.29102-0.16455,0.62305-0.11621,0.875,0.13281
		c0.07031,0.06885,0.13281,0.14746,0.1875,0.22949c0.17773,0.26514,0.33691,0.54199,0.52441,0.79883
		c0.34961,0.47803,0.81348,0.82422,1.3291,1.10693c0.32129,0.17627,0.67285,0.25879,1.02344,0.35059
		c0.16504,0.04346,0.33203,0.08594,0.49414,0.13867c0.1543,0.0498,0.28906,0.13623,0.39258,0.26221
		c0.20508,0.24854,0.21289,0.52197,0.07715,0.80029c-0.05566,0.11377-0.13477,0.21777-0.21387,0.31836
		c-0.17578,0.22461-0.36719,0.4375-0.53613,0.66699c-0.30957,0.42383-0.48926,0.90723-0.6084,1.41406
		c-0.08789,0.37012-0.10059,0.74414-0.06836,1.12109c0.01953,0.22656,0.0332,0.45508,0.0293,0.68164
		c-0.00586,0.29297-0.11328,0.54395-0.38281,0.69336c-0.20703,0.11719-0.43164,0.11719-0.65039,0.04297
		c-0.25781-0.08594-0.51172-0.18555-0.76367-0.28906c-0.52051-0.21387-1.0625-0.25977-1.61816-0.23828
		c-0.50781,0.01953-0.97559,0.17969-1.43848,0.36914c-0.17676,0.07227-0.35742,0.14453-0.54492,0.18359
		c-0.47852,0.10547-0.875-0.20508-0.91113-0.69727c-0.00488-0.06055-0.00098-0.12305-0.00098-0.18555
		C92.875,10.12354,92.87402,10.12354,92.87207,10.12354z"/>
</g>
</svg>
